<svg width="512" height="498" viewBox="0 0 512 498" fill="none" xmlns="http://www.w3.org/2000/svg">
<path d="M319.54 399.352H276.488V497.242H319.54V399.352Z" fill="#937CFC"/>
<path d="M491.512 178.528H448.601V21.241C448.601 9.926 439.428 0.752998 428.113 0.752998H83.886C72.571 0.752998 63.398 9.926 63.398 21.241V178.528H20.488C9.173 178.528 0 187.701 0 199.016V476.76C0 488.075 9.173 497.248 20.488 497.248H151.492V378.862C151.492 367.547 160.665 358.374 171.98 358.374H340.022C351.337 358.374 360.51 367.547 360.51 378.862V497.247H491.514C502.829 497.247 512.002 488.074 512.002 476.759V199.016C512 187.701 502.828 178.528 491.512 178.528ZM290.703 130.617H276.489V144.833C276.489 156.148 267.316 165.321 256.001 165.321C244.686 165.321 235.513 156.148 235.513 144.833V130.617H221.297C209.982 130.617 200.809 121.444 200.809 110.129C200.809 98.814 209.981 89.641 221.295 89.641H235.511V75.425C235.511 64.11 244.684 54.937 255.999 54.937C267.314 54.937 276.487 64.11 276.487 75.425V89.641H290.703C302.018 89.641 311.191 98.814 311.191 110.129C311.19 121.444 302.017 130.617 290.703 130.617Z" fill="#937CFC"/>
<path d="M235.502 399.352H192.461V497.242H235.502V399.352Z" fill="#937CFC"/>
</svg>
